<svg width="36" height="41" viewBox="0 0 36 41" fill="none" xmlns="http://www.w3.org/2000/svg">
<path d="M23.2391 4.74939C23.4276 4.70949 23.6167 4.74944 23.7733 4.85779L23.8378 4.90271V4.9115L24.9257 5.67615H24.9266C25.2309 5.89344 25.313 6.31321 25.0936 6.62439C24.8778 6.93035 24.4597 7.01395 24.1493 6.79236V6.79138L23.4618 6.30798C23.0712 6.5754 22.5868 6.6677 22.1229 6.57166L21.661 7.23083L21.66 7.22986C21.5289 7.42145 21.312 7.5199 21.1053 7.5199C20.9665 7.51989 20.8371 7.47986 20.7206 7.40173L20.7167 7.3988C20.4126 7.18156 20.3305 6.76266 20.5497 6.45154L21.3143 5.34705L21.3153 5.34607C21.5312 5.04022 21.9493 4.95648 22.2596 5.1781C22.4291 5.29914 22.6679 5.25717 22.7919 5.08142L22.829 5.02771C22.9229 4.88487 23.0698 4.78528 23.2391 4.74939ZM22.8046 5.07068C22.8015 5.07474 22.7997 5.07868 22.7987 5.08044L22.7968 5.0824C22.7989 5.07839 22.8014 5.07463 22.8036 5.07068H22.8046Z" fill="black" stroke="black" stroke-width="0.3"/>
<path d="M28.2579 8.84729C28.4737 8.54138 28.8919 8.4578 29.2023 8.67932L29.2013 8.6803L30.3536 9.48792L30.3566 9.48987C30.5001 9.59583 30.6096 9.76187 30.632 9.95374L30.6388 10.026C30.6458 10.1942 30.5863 10.355 30.4855 10.4821L30.4796 10.4889L30.4738 10.4948C30.4729 10.4956 30.4716 10.4959 30.4708 10.4967C30.3545 10.6681 30.3978 10.9066 30.5704 11.0299C30.8742 11.2469 30.9557 11.6642 30.7374 11.9752L29.9728 13.0787L29.9738 13.0797C29.8428 13.2723 29.6242 13.3716 29.4171 13.3717C29.2781 13.3717 29.148 13.3308 29.0314 13.2526L29.0275 13.2496V13.2487C28.7242 13.0313 28.6416 12.6132 28.8605 12.3024L29.3214 11.6442C29.0697 11.238 28.998 10.7429 29.1144 10.2809L28.4259 9.79553H28.4249C28.1207 9.57825 28.0385 9.15847 28.2579 8.84729Z" fill="black" stroke="black" stroke-width="0.3"/>
<path d="M21.7717 1.2937C22.0376 1.24414 22.3132 1.30403 22.5383 1.46167L34.0266 9.54565L34.1106 9.61011C34.5094 9.95087 34.5842 10.5424 34.2815 10.9763L32.4495 13.6121L32.4485 13.613C32.2186 13.9389 31.7737 14.0276 31.4436 13.7917C31.1198 13.5604 31.0325 13.114 31.2659 12.783L32.8625 10.488L22.0618 2.87183L14.3459 13.9578H17.6643C17.866 13.4331 18.1328 12.9241 18.4622 12.447C19.256 11.2959 20.3439 10.4318 21.5159 10.0242C22.7576 9.59037 23.9644 9.70744 24.8977 10.363C25.9689 11.116 26.4747 12.461 26.3479 13.9656H29.2043C30.8361 13.9656 32.1584 15.2973 32.1584 16.9373V21.406C33.4541 21.7734 34.4094 22.9639 34.4094 24.3826V26.7234C34.4094 28.1419 33.454 29.3315 32.1584 29.699V34.1765C32.1584 35.8165 30.8362 37.1482 29.2043 37.1482H24.8538C24.452 37.1482 24.134 36.8275 24.134 36.4255C24.1341 36.0236 24.4521 35.7029 24.8538 35.7029H29.2043C30.0411 35.7029 30.72 35.021 30.72 34.1765V29.821H26.7952C24.4605 29.821 22.5618 27.9087 22.5618 25.5613C22.5618 23.2139 24.4605 21.3015 26.7952 21.3015H30.72V16.946C30.72 16.1016 30.0411 15.4197 29.2043 15.4197H4.48657C4.32992 15.4197 4.18125 15.441 4.04126 15.4841C4.0381 15.4859 4.03461 15.4889 4.03052 15.491C4.01776 15.4974 4.00161 15.5025 3.98267 15.5066C3.39324 15.716 2.97095 16.282 2.97095 16.946V34.1853C2.97095 35.0298 3.64986 35.7117 4.48657 35.7117H8.73657C9.1383 35.7117 9.4563 36.0324 9.4563 36.4343C9.45615 36.8362 9.13821 37.157 8.73657 37.157H4.48657C2.85477 37.157 1.53247 35.8253 1.53247 34.1853V16.946C1.53247 15.8264 2.14866 14.8498 3.06372 14.3396V8.72632C3.06372 8.32436 3.38171 8.00366 3.78345 8.00366C4.18506 8.00379 4.5022 8.32444 4.5022 8.72632V13.9744H5.85083V3.72144H4.5022V6.44312C4.5022 6.845 4.18506 7.16662 3.78345 7.16675C3.38171 7.16675 3.06372 6.84508 3.06372 6.44312V3.3103C3.0639 2.74949 3.51441 2.28502 4.08423 2.28491H17.7327C18.2922 2.28505 18.752 2.7392 18.7522 3.3103V5.11499L21.1155 1.71753L21.178 1.63647C21.3319 1.4554 21.5409 1.33672 21.7717 1.2937ZM26.803 22.7468C25.2635 22.747 24.0081 24.0095 24.0081 25.5613C24.0081 27.1131 25.2635 28.3756 26.803 28.3757H31.3381C32.2338 28.3757 32.9709 27.6435 32.9709 26.7322V24.3904C32.9708 23.4866 32.2412 22.7468 31.3381 22.7468H26.803ZM7.28052 13.9744H8.57056V3.72144H7.28052V13.9744ZM24.0725 11.5515C23.4938 11.1427 22.7128 11.1113 21.9026 11.4207C21.0933 11.7297 20.2715 12.3748 19.6379 13.2839L19.637 13.2849C19.48 13.5061 19.3436 13.732 19.2258 13.9656H24.9045C25.0264 12.8859 24.7126 12.0032 24.0725 11.5515ZM10.0081 13.9656H12.5833L17.3147 7.17163V3.72144H10.0081V13.9656Z" fill="black" stroke="black" stroke-width="0.3"/>
<path d="M16.8366 26.5315C20.711 26.5315 23.8659 29.7077 23.8659 33.6047C23.8659 37.5018 20.711 40.678 16.8366 40.678C12.9624 40.6777 9.80831 37.5016 9.80829 33.6047C9.80829 29.7078 12.9624 26.5317 16.8366 26.5315ZM16.8366 27.969C13.7576 27.9692 11.2469 30.4947 11.2468 33.5959C11.2468 36.6973 13.7575 39.2236 16.8366 39.2239C19.9159 39.2239 22.4274 36.6975 22.4274 33.5959C22.4272 30.4945 19.9158 27.969 16.8366 27.969Z" fill="black" stroke="black" stroke-width="0.3"/>
<path d="M16.8368 30.4707V36.6945" stroke="black" stroke-width="1.8" stroke-linecap="round" stroke-linejoin="round"/>
<path d="M13.7493 33.5789H19.9332" stroke="black" stroke-width="1.8" stroke-linecap="round" stroke-linejoin="round"/>
</svg>
