<svg viewBox="0 0 50 24" xmlns="http://www.w3.org/2000/svg"><g fill="#3354f4"><path d="m33.4 23.5h-16.9c-1.6 0-2.8-1.3-2.8-2.8v-9.9c0-1.6 1.3-2.8 2.8-2.8h16.9c1.6 0 2.8 1.3 2.8 2.8v9.9c0 1.6-1.3 2.8-2.8 2.8zm-16.8-14.2c-.8 0-1.5.7-1.5 1.5v9.9c0 .8.7 1.5 1.5 1.5h16.9c.8 0 1.5-.7 1.5-1.5v-9.9c0-.8-.7-1.5-1.5-1.5z"/><path d="m33.4 6.1h-16.9c-1.6 0-2.8-1.3-2.8-2.8s1.3-2.8 2.8-2.8h16.9c1.6 0 2.8 1.3 2.8 2.8s-1.3 2.8-2.8 2.8zm-16.8-4.3c-.8 0-1.5.7-1.5 1.5s.7 1.5 1.5 1.5h16.9c.8 0 1.5-.7 1.5-1.5s-.7-1.5-1.5-1.5z"/></g></svg>