<svg width="32" height="32" viewBox="0 0 32 32" fill="none" xmlns="http://www.w3.org/2000/svg">
<g clip-path="url(#clip0_1_39)">
<path d="M16.0443 0.988937C18.9703 0.988937 21.5495 1.4758 22.5228 1.68523C26.2698 2.49152 28.7149 5.10754 29.4066 9.05144C29.6442 10.4068 30.0423 13.1122 30.0424 15.9997C30.0424 18.8997 29.6442 21.6071 29.4066 22.9626C28.715 26.9066 26.2699 29.5225 22.5228 30.3288C21.7791 30.4889 19.1103 31.0114 15.9896 31.0114C13.026 31.0114 10.4629 30.5338 9.49841 30.3288C5.78599 29.5399 3.34105 26.9262 2.61462 22.9684C2.41611 21.8863 1.95471 19.0422 1.9574 16.0134C1.95994 13.1982 2.36961 10.443 2.61365 9.05144C3.31176 5.07139 5.7585 2.45507 9.50232 1.68425C10.508 1.47723 13.1524 0.995107 15.9886 0.988937H16.0443ZM16.0004 20.3112C10.9478 20.3112 7.93119 22.8794 7.93103 27.1813C7.93103 27.567 7.95758 27.9925 8.0072 28.446C8.5407 28.6886 9.11955 28.8778 9.74353 29.0104C10.6715 29.2076 13.1376 29.6666 15.9896 29.6667C18.9941 29.6667 21.5598 29.1653 22.2748 29.0114C22.8916 28.8787 23.4647 28.6927 23.9926 28.4557C24.0431 27.9982 24.0687 27.5701 24.0687 27.1813C24.0686 22.8796 21.0526 20.3113 16.0004 20.3112ZM15.9916 2.33366C13.2621 2.33964 10.7099 2.80479 9.73962 3.00456C6.53785 3.66381 4.44625 5.89927 3.84998 9.29948C3.61394 10.6454 3.21762 13.3082 3.21521 16.0153C3.21267 18.9251 3.65758 21.6652 3.849 22.7087C4.24839 24.885 5.21266 26.5569 6.68494 27.6647C6.67786 27.4996 6.67322 27.3371 6.67322 27.1813C6.67329 24.5534 7.64364 22.3974 9.47888 20.9469C11.1181 19.6516 13.3735 18.9675 16.0004 18.9675C18.6273 18.9675 20.8827 19.6515 22.5219 20.9469C24.3571 22.3974 25.3265 24.5535 25.3265 27.1813C25.3265 27.3436 25.3215 27.5128 25.3138 27.6852C26.815 26.5759 27.7872 24.8991 28.1703 22.7145C28.3552 21.6602 28.7856 18.8951 28.7855 15.9997C28.7855 13.2209 28.4 10.609 28.1703 9.29948C27.5709 5.88133 25.5321 3.70453 22.2748 3.00359C21.3387 2.80222 18.8574 2.33366 16.0443 2.33366H15.9916Z" fill="black"/>
<path d="M16.0443 0.988937C18.9703 0.988937 21.5495 1.4758 22.5228 1.68523C26.2698 2.49152 28.7149 5.10754 29.4066 9.05144C29.6442 10.4068 30.0423 13.1122 30.0424 15.9997C30.0424 18.8997 29.6442 21.6071 29.4066 22.9626C28.715 26.9066 26.2699 29.5225 22.5228 30.3288C21.7791 30.4889 19.1103 31.0114 15.9896 31.0114C13.026 31.0114 10.4629 30.5338 9.49841 30.3288C5.78599 29.5399 3.34105 26.9262 2.61462 22.9684C2.41611 21.8863 1.95471 19.0422 1.9574 16.0134C1.95994 13.1982 2.36961 10.443 2.61365 9.05144C3.31176 5.07139 5.7585 2.45507 9.50232 1.68425C10.508 1.47723 13.1524 0.995107 15.9886 0.988937H16.0443ZM16.0004 20.3112C10.9478 20.3112 7.93119 22.8794 7.93103 27.1813C7.93103 27.567 7.95758 27.9925 8.0072 28.446C8.5407 28.6886 9.11955 28.8778 9.74353 29.0104C10.6715 29.2076 13.1376 29.6666 15.9896 29.6667C18.9941 29.6667 21.5598 29.1653 22.2748 29.0114C22.8916 28.8787 23.4647 28.6927 23.9926 28.4557C24.0431 27.9982 24.0687 27.5701 24.0687 27.1813C24.0686 22.8796 21.0526 20.3113 16.0004 20.3112ZM15.9916 2.33366C13.2621 2.33964 10.7099 2.80479 9.73962 3.00456C6.53785 3.66381 4.44625 5.89927 3.84998 9.29948C3.61394 10.6454 3.21762 13.3082 3.21521 16.0153C3.21267 18.9251 3.65758 21.6652 3.849 22.7087C4.24839 24.885 5.21266 26.5569 6.68494 27.6647C6.67786 27.4996 6.67322 27.3371 6.67322 27.1813C6.67329 24.5534 7.64364 22.3974 9.47888 20.9469C11.1181 19.6516 13.3735 18.9675 16.0004 18.9675C18.6273 18.9675 20.8827 19.6515 22.5219 20.9469C24.3571 22.3974 25.3265 24.5535 25.3265 27.1813C25.3265 27.3436 25.3215 27.5128 25.3138 27.6852C26.815 26.5759 27.7872 24.8991 28.1703 22.7145C28.3552 21.6602 28.7856 18.8951 28.7855 15.9997C28.7855 13.2209 28.4 10.609 28.1703 9.29948C27.5709 5.88133 25.5321 3.70453 22.2748 3.00359C21.3387 2.80222 18.8574 2.33366 16.0443 2.33366H15.9916Z" stroke="black"/>
<path d="M16.0002 5.91731C19.1203 5.91745 21.6592 8.63084 21.6594 11.9661C21.6594 15.3016 19.1204 18.0158 16.0002 18.0159C12.8799 18.0159 10.341 15.3017 10.341 11.9661C10.3413 8.63079 12.88 5.91731 16.0002 5.91731ZM16.0002 7.26204C13.5735 7.26204 11.5991 9.37201 11.5989 11.9661C11.5989 14.5605 13.5733 16.6712 16.0002 16.6712C18.4271 16.6711 20.4016 14.5605 20.4016 11.9661C20.4014 9.3721 18.427 7.26217 16.0002 7.26204Z" fill="black"/>
<path d="M16.0002 5.91731C19.1203 5.91745 21.6592 8.63084 21.6594 11.9661C21.6594 15.3016 19.1204 18.0158 16.0002 18.0159C12.8799 18.0159 10.341 15.3017 10.341 11.9661C10.3413 8.63079 12.88 5.91731 16.0002 5.91731ZM16.0002 7.26204C13.5735 7.26204 11.5991 9.37201 11.5989 11.9661C11.5989 14.5605 13.5733 16.6712 16.0002 16.6712C18.4271 16.6711 20.4016 14.5605 20.4016 11.9661C20.4014 9.3721 18.427 7.26217 16.0002 7.26204Z" stroke="black"/>
</g>
<defs>
<clipPath id="clip0_1_39">
<rect width="29" height="31" fill="white" transform="translate(1.5 0.5)"/>
</clipPath>
</defs>
</svg>
