<svg width="50" height="37" viewBox="0 0 50 37" fill="none" xmlns="http://www.w3.org/2000/svg">
<path d="M43.8998 25.572V32.067C43.8998 33.6638 42.5494 34.9545 40.8787 34.9545H4.66059C2.98991 34.9545 1.63953 33.6638 1.63953 32.067V11.8705C1.63953 10.2736 2.98991 8.98291 4.66059 8.98291H40.8874C42.558 8.98291 43.9084 10.2736 43.9084 11.8705V22.6927" stroke="black" stroke-width="2" stroke-miterlimit="10"/>
<path d="M4.59991 6.09486C5.07601 5.54051 5.76852 5.15991 6.57356 5.0689L42.5493 1.06435C44.2027 0.882329 45.7002 2.01585 45.8993 3.59615L48.3404 23.6602C48.5308 25.2406 47.3449 26.6719 45.6915 26.8622L43.8997 27.0608" stroke="black" stroke-width="2" stroke-miterlimit="10"/>
<path d="M6.16684 26.2902H12.209" stroke="black" stroke-width="2" stroke-miterlimit="10"/>
<path d="M6.16684 29.8994H21.2635" stroke="black" stroke-width="2" stroke-miterlimit="10"/>
<path d="M15.2215 26.2902H21.2636" stroke="black" stroke-width="2" stroke-miterlimit="10"/>
<path d="M24.2757 26.2902H30.3178" stroke="black" stroke-width="2" stroke-miterlimit="10"/>
<path d="M33.3393 26.2902H39.3727" stroke="black" stroke-width="2" stroke-miterlimit="10"/>
<path d="M12.209 22.6811H7.68171C6.8507 22.6811 6.17551 22.0359 6.17551 21.2418V18.3549C6.17551 17.5607 6.8507 16.9155 7.68171 16.9155H12.209C13.04 16.9155 13.7152 17.5607 13.7152 18.3549V21.2418C13.7152 22.0359 13.04 22.6811 12.209 22.6811Z" stroke="black" stroke-width="2" stroke-miterlimit="10"/>
<path d="M9.18774 19.8049H10.6939" stroke="black" stroke-width="2" stroke-miterlimit="10" stroke-linecap="round"/>
</svg>
