<svg viewBox="0 0 50 24" xmlns="http://www.w3.org/2000/svg"><g fill="#3354f4"><path d="m30.1 16c-.3 0-.6-.3-.6-.6s.3-.6.6-.6h5v-13.1h-20.2v13h5c.3 0 .6.3.6.6s-.3.6-.6.6h-5.6c-.3 0-.6-.3-.6-.6v-14.2c0-.3.3-.6.6-.6h21.4c.3 0 .6.3.6.6v14.3c0 .3-.3.6-.6.6z" fill-rule="evenodd"/><path d="m24.5 13.6c-.1 0-.3 0-.4 0l-.9-.2c-.4-.1-.8-.4-1.1-.8-.2-.3-.3-.8-.2-1.1-.4 0-.8 0-1.1-.2-.4-.2-.7-.6-.8-1.1l-.2-.9c-.2-.9.3-1.8 1.1-2.1-.6-.7-.5-1.7.1-2.3l.6-.6c.3-.3.8-.5 1.2-.5.4 0 .8.1 1.1.4.3-.8 1.2-1.3 2.1-1.1l.9.2c.4.1.8.4 1.1.8.2.3.3.8.2 1.1.4 0 .8 0 1.1.2.4.2.7.6.8 1l.2.9c.2.9-.2 1.8-1.1 2.1.3.3.4.7.4 1.1 0 .5-.2.9-.5 1.2l-.6.6c-.6.6-1.6.7-2.3.1-.2.7-.9 1.1-1.6 1.1zm-2.3-3.6c.3 0 .5.1.7.3s.3.6.2.9v.2c-.1.1 0 .3 0 .4s.2.2.3.2l.9.2c.3 0 .6 0 .6-.4v-.3c.3-.3.5-.5.8-.6.3 0 .6 0 .9.3h.1c0 .2.2.3.4.3.1 0 .3 0 .4-.2l.7-.7c.1 0 .2-.2.2-.4 0-.1 0-.3-.1-.4h-.1c-.2-.4-.3-.7-.3-1s.3-.6.6-.7h.3c.3-.2.5-.5.4-.8l-.2-.9c0-.1-.1-.2-.2-.3-.1 0-.3 0-.4 0h-.2c-.3.2-.7 0-.9-.2s-.3-.6-.2-.9v-.2c.1-.1 0-.3 0-.4s-.2-.2-.3-.2l-.9-.2c-.3 0-.6 0-.6.4v.2c-.2.3-.4.6-.8.7-.3 0-.7 0-.9-.3l-.2-.2s-.2-.1-.4-.1c-.1 0-.3 0-.4.2l-.6.6c-.2.2-.2.5 0 .7l.2.2c.2.2.3.6.2.9 0 .3-.3.6-.7.7h-.2c-.3.1-.5.4-.4.7l.2.9c0 .1.1.2.2.3h.4.2.3zm3.6 2.2s0 0 0 0zm-3.5-1s0 0 0 0zm-.3-.3s0 0 0 0zm-.9-3.5s0 0 0 0zm.1-.4s0 0 0 0zm6.8-1.5s0 0 0 0zm-.3-.3s0 0 0 0zm-3.9-.8s0 0 0 0z"/><path d="m25 10.5c-.6 0-1.2-.2-1.6-.7-.4-.4-.7-1-.7-1.6s.2-1.2.7-1.6c.9-.9 2.3-.9 3.2 0s.9 2.3 0 3.2c-.4.4-1 .7-1.6.7zm0-3.4c-.3 0-.6.1-.8.3s-.3.5-.3.8.1.6.3.8.5.3.8.3c.3 0 .6-.1.8-.3s.3-.5.3-.8-.1-.6-.3-.8-.5-.3-.8-.3z"/><path d="m24.1 23.5c-.2 0-.3-.1-.4-.3l-3.5-8.6c0-.2 0-.3 0-.5 0 0 .2-.1.3-.1s.1 0 .2 0l8.6 3.5c.2 0 .3.3.3.4 0 .2-.2.4-.4.4l-4 .8-.8 4c0 .2-.2.3-.4.4zm-.1-2 .6-2.9c0-.2.2-.3.3-.3l2.9-.6-6.3-2.5z" fill-rule="evenodd"/></g></svg>