<svg width="32" height="32" viewBox="0 0 32 32" fill="none" xmlns="http://www.w3.org/2000/svg">
<rect x="1.84865" y="1.53847" width="28.3026" height="6.22258" rx="3.11129" stroke="black" stroke-width="1.07694"/>
<rect x="2.32271" y="9.84242" width="12.6296" height="9.30119" rx="1.10722" stroke="black" stroke-width="1.07694"/>
<rect x="2.32271" y="21.1603" width="12.6296" height="9.30119" rx="1.10722" stroke="black" stroke-width="1.07694"/>
<rect x="17.0479" y="9.84242" width="12.6296" height="9.30119" rx="1.10722" stroke="black" stroke-width="1.07694"/>
<rect x="17.0479" y="21.1603" width="12.6296" height="9.30119" rx="1.10722" stroke="black" stroke-width="1.07694"/>
<path d="M24.645 2.66016C25.6515 2.66016 26.4672 3.47599 26.4673 4.48242C26.4673 4.80101 26.3844 5.09981 26.2407 5.36035L26.6606 5.75098C26.8772 5.95177 26.8873 6.29109 26.6831 6.50977C26.4787 6.72845 26.137 6.74285 25.9204 6.54199L25.4565 6.11133C25.2119 6.23345 24.9371 6.30469 24.645 6.30469C23.6386 6.30458 22.8228 5.48888 22.8228 4.48242C22.8229 3.47606 23.6387 2.66027 24.645 2.66016ZM24.645 3.7373C24.2334 3.73741 23.9 4.07084 23.8999 4.48242C23.8999 4.8941 24.2334 5.22841 24.645 5.22852C25.0568 5.22852 25.3911 4.89417 25.3911 4.48242C25.391 4.07077 25.0567 3.7373 24.645 3.7373Z" fill="black"/>
<path d="M5.14331 4.6499H18.804" stroke="black" stroke-width="1.07694" stroke-linecap="round"/>
<path d="M5.43872 14.2734H10.7405C10.8618 14.2734 10.9592 14.3719 10.9592 14.4932C10.959 14.6145 10.8614 14.7119 10.7405 14.7119H5.43872C5.31776 14.7119 5.21921 14.6145 5.21899 14.4932C5.21899 14.3719 5.31743 14.2734 5.43872 14.2734Z" fill="black" stroke="black" stroke-width="1.07694"/>
<path d="M20.712 14.2739H26.0138C26.1351 14.2739 26.2325 14.3724 26.2325 14.4937C26.2323 14.615 26.1348 14.7124 26.0138 14.7124H20.712C20.5911 14.7124 20.4925 14.615 20.4923 14.4937C20.4923 14.3724 20.5907 14.2739 20.712 14.2739Z" fill="black" stroke="black" stroke-width="1.07694"/>
<path d="M20.712 25.5916H26.0138C26.1351 25.5916 26.2325 25.69 26.2325 25.8113C26.2323 25.9326 26.1348 26.03 26.0138 26.03H20.712C20.5911 26.03 20.4925 25.9326 20.4923 25.8113C20.4923 25.69 20.5907 25.5916 20.712 25.5916Z" fill="black" stroke="black" stroke-width="1.07694"/>
<path d="M5.43872 25.5916H10.7405C10.8618 25.5916 10.9592 25.69 10.9592 25.8113C10.959 25.9326 10.8614 26.03 10.7405 26.03H5.43872C5.31776 26.03 5.21921 25.9326 5.21899 25.8113C5.21899 25.69 5.31743 25.5916 5.43872 25.5916Z" fill="black" stroke="black" stroke-width="1.07694"/>
</svg>
