<svg viewBox="0 0 50 24" xmlns="http://www.w3.org/2000/svg"><g fill="#3354f4"><path d="m22.7 10.1v3h4.7v-3h-.7c-.2 0-.4-.3-.5-.5 0-.4.2-.7.6-.7h2.3s.7.4.6.8-.3.4-.4.4h-.7v7.1h.7c.1 0 .4.2.4.4.2.4-.1.8-.6.8s-1.7 0-2.3 0-.7-.3-.6-.7.3-.5.5-.5h.7v-3h-4.7v3h.7c.2 0 .4.3.5.5 0 .4-.2.7-.6.7-.6 0-1.7 0-2.3 0s-.7-.4-.6-.8.3-.4.4-.4h.7v-7.1h-.7c-.1 0-.4-.2-.4-.4-.2-.4.1-.8.6-.8s1.7 0 2.3 0 .7.3.6.7-.3.5-.5.5z"/><path d="m33.6 6.1-5.4-5.4c-.1-.1-.3-.2-.5-.2h-9.4c-1.1 0-2 .9-2 2v19c0 1.1.9 2 2 2h13.5c1.1 0 2-.9 2-2v-14.9c0-.2 0-.4-.2-.5zm-5.2-3.3 3.1 3.1h-2.4c-.4 0-.7-.3-.7-.7zm3.3 19.4h-13.5c-.4 0-.7-.3-.7-.7v-19c0-.4.3-.7.7-.7h8.8v3.4c0 1.1.9 2 2 2h3.4v14.2c0 .4-.3.7-.7.7z"/></g></svg>