<svg viewBox="0 0 50 24" xmlns="http://www.w3.org/2000/svg"><g fill="#3354f4"><path d="m24.5.5c.3 0 .7.1 1 .2 2.6.8 4.2 3.6 3.5 6.2 0 0 0 0-.1 0-.4 0-.8-.3-1.2-.3.6-2-.6-4.1-2.6-4.6-3.3-.9-6 2.6-4.3 5.6l-1.1.7s0 0-.1 0c-.1-.2-.3-.7-.4-.9-1.1-3.1 1.1-6.5 4.4-6.8h.9z"/><path d="m26 8c.7-.2 1.4 0 2 .4 1.1-.9 2.7-.5 3.2.8 1.6-.5 2.7.4 2.8 2s0 3.5 0 5c-.4 9.5-13.6 9.7-14.6.5v-7.3s1.1 0 1.1 0c.2 0 .7.2.9.2s.4.2.6.3v-4.4c0-.5.4-1.1.8-1.4 1.3-1 3.2 0 3.2 1.6v2.2zm-1.4 6.1v-8.5c0-.1-.4-.4-.5-.4-.3 0-.7.2-.7.6v9.7h-1.4v-3c0-.1-.1-.4-.2-.5-.2-.4-.6-.8-1.1-.9v5.8c.4 4.3 5.1 6.9 8.9 4.7 1.6-.9 2.8-2.7 2.9-4.6s0-4 0-5.9c0-.5-.7-.6-1-.4s-.2.3-.2.3v3.2h-1.4v-4.3c0-.2-.4-.5-.7-.5s-.6.3-.6.5v4.3h-1.4v-4.3c0-.2-.4-.5-.7-.5s-.6.3-.6.5v4.3h-1.4z"/><path d="m16.9 1.8 1.2.6c-1 1.8-1.1 4.1-.2 6l-1.2.6c-.2 0-.5-1.4-.6-1.7-.4-1.9-.1-3.9.8-5.6z"/><path d="m32.1 5.6h-1.4c0-1.5-.5-2.9-1.3-4 0 0 0 0 0-.1.2-.2.7-.5 1-.7 1 1.4 1.6 3.1 1.6 4.9z"/></g></svg>