<svg width="32" height="26" viewBox="0 0 32 26" fill="none" xmlns="http://www.w3.org/2000/svg">
	<rect x="0.6" y="2.1" width="30.8" height="21.8" rx="2.2" stroke="#818489" stroke-width="1.15"/>
	<line x1="10" y1="2.6" x2="10" y2="23.4" stroke="#818489" stroke-width="0.9"/>
	<rect x="2.4" y="6" width="6" height="2" rx="0.6" stroke="#818489" stroke-width="0.85"/>
	<rect x="2.4" y="11" width="6" height="2" rx="0.6" stroke="#818489" stroke-width="0.85"/>
	<rect x="2.4" y="16" width="6" height="2" rx="0.6" stroke="#818489" stroke-width="0.85"/>
	<rect x="11.8" y="5" width="5.2" height="2.2" rx="1.1" fill="#818489"/>
	<rect x="18.2" y="5" width="5.2" height="2.2" rx="1.1" stroke="#B7B7B7" stroke-width="0.7"/>
	<rect x="24.6" y="5" width="5.2" height="2.2" rx="1.1" stroke="#B7B7B7" stroke-width="0.7"/>
	<rect x="11.8" y="9.8" width="8.6" height="5.7" rx="0.6" stroke="#818489" stroke-width="0.85"/>
	<rect x="21.2" y="9.8" width="8.6" height="5.7" rx="0.6" stroke="#818489" stroke-width="0.85"/>
	<rect x="11.8" y="16.8" width="8.6" height="5.7" rx="0.6" stroke="#818489" stroke-width="0.85"/>
	<rect x="21.2" y="16.8" width="8.6" height="5.7" rx="0.6" stroke="#818489" stroke-width="0.85"/>
</svg>
