<svg viewBox="0 0 50 24" xmlns="http://www.w3.org/2000/svg"><g fill="#3354f4"><path d="m18.9 15.7c0 1-.2 1.7-.6 2.2s-.9.8-1.7.8-1.3-.2-1.7-.7-.6-1.2-.6-2.2v-1.2c0-1 .2-1.7.6-2.2s.9-.7 1.7-.7 1.3.2 1.7.7.6 1.2.6 2.2v1.2zm-1.2-1.3c0-.6 0-1.1-.3-1.4s-.5-.4-.8-.4-.6.1-.8.4-.3.7-.3 1.3v1.6c0 .6 0 1.1.3 1.4s.5.5.8.5.6-.1.8-.4.3-.7.3-1.4v-1.5z"/><path d="m24.4 15.7c0 1-.2 1.7-.6 2.2s-.9.8-1.7.8-1.3-.2-1.7-.7-.6-1.2-.6-2.2v-1.2c0-1 .2-1.7.6-2.2s.9-.7 1.7-.7 1.3.2 1.7.7.6 1.2.6 2.2v1.2zm-1.2-1.3c0-.6 0-1.1-.3-1.4s-.5-.4-.8-.4-.6.1-.8.4-.3.7-.3 1.3v1.6c0 .6 0 1.1.3 1.4s.5.5.8.5.6-.1.8-.4.3-.7.3-1.4v-1.5z"/><path d="m28.5 20.3h-1.1v-5.5l-1.7.6v-1l2.7-1h.1z"/><path d="m30.5.5c-1.8 0-3.4.9-4.4 2.2h-12.8c-1.3 0-2.3 1-2.3 2.3v16.1c0 1.3 1 2.3 2.3 2.3h16.1c1.3 0 2.3-1 2.3-2.3v-9.7c2.5-.6 4.2-2.9 4.2-5.4s-2.5-5.6-5.6-5.6zm-18 4.5c0-.5.4-.9.9-.9h11.9c-.2.6-.3 1.2-.3 1.8h-12.5zm17.9 16.2c0 .5-.4.9-.9.9h-16.1c-.5 0-.9-.4-.9-.9v-13.8h12.7c0 .2.1.4.2.6.3.7.7 1.3 1.1 1.8.5.6 1.2 1 1.9 1.3.3.2.7.3 1 .3s.7.1 1 .1v9.6zm1.3-11.2c-.4.1-.8.2-1.2.2s-.5 0-.7 0c-.4 0-.8-.2-1.1-.4-1-.5-1.8-1.4-2.1-2.5-.1-.4-.2-.8-.2-1.2s0-.2 0-.4c0-.6.2-1.1.5-1.6.2-.4.6-.9.9-1.2.7-.6 1.7-1 2.7-1 2.3 0 4.1 1.8 4.1 4.1s-1.2 3.4-3 4z"/><path d="m33.1 6.3c-.1.1-.3.2-.5.2s-.4 0-.5-.2l-.8-.8v2.7c0 .4-.3.7-.7.7s-.7-.3-.7-.7v-2.7l-.8.8c-.1.1-.3.2-.5.2s-.4 0-.5-.2c-.2-.2-.3-.6 0-.9v-.1l2.1-2.1s.1-.1.2-.2h.3s.2 0 .3 0c0 0 .2 0 .2.2l2.1 2.1c.3.3.3.7 0 1z"/></g></svg>