<svg viewBox="0 0 50 24" xmlns="http://www.w3.org/2000/svg"><g fill="#3354f4"><path d="m26.3.9c2.5.1 4.9 1.2 6.8 2.8l1.4-1.4c-.3-.5-1.2-.8-.8-1.5s.8-.3 1.1 0c.5.4 1.8 1.7 2.2 2.2s.3.3.2.6c0 .5-.5.7-1 .5s-.8-.9-.9-.8l-1.4 1.4c4.1 4.7 3.6 11.9-1.1 16-4.1 3.5-10.1 3.7-14.4.4s-1.2-.9-1.2-1.3.4-.9.9-.7.7.6 1 .8c6.7 5.3 16.4.4 16.2-8-.2-8-9.4-12.5-15.9-7.7s-.9.9-1.2 1c-.6.3-1.1-.2-.9-.8s.8-.8 1-1c1.8-1.5 4.1-2.4 6.5-2.5"/><path d="m30.6 6.5c.6-.1 1 .4.8 1l-3.6 3.7c1 1.9-.8 4.1-2.9 3.3s-1.6-4.8 1.2-4.5c.3 0 .5.2.8.2l3.4-3.4s.3-.2.4-.2zm-5.2 4.8c-1 .2-1 1.8 0 1.9 1.5.3 1.6-2.2 0-1.9z"/><path d="m14.4 12.7c-.3-.4-.2-.9.3-1.1h6.5c.8.1.8 1.2 0 1.3-2-.1-4.2.2-6.1 0-.2 0-.4 0-.5-.2z"/><path d="m12.8 8.4c-.5-.5 0-1.2.6-1.2 1.9.1 4.1-.2 6 0s1 .9.3 1.3h-6.5c-.1 0-.3 0-.4-.1z"/><path d="m19.9 16c.4.4.1 1.1-.4 1.1h-6.3c-.8-.1-.8-1.2 0-1.3 2 .1 4.2-.2 6.1 0s.4 0 .6.2z"/><path d="m30.1 16.1c.1 0 .3 0 .4.1s1.1 1 1.1 1.1c.4.6-.3 1.3-.9.9s-1.1-1.1-1.2-1.2c-.2-.4 0-1 .5-1z"/><path d="m33.9 11.7c.4.4.2 1.1-.3 1.2s-1.3 0-1.5 0c-.7-.1-.7-1.2 0-1.3s1.3 0 1.6 0 .3.1.3.2z"/><path d="m25.5 18c.3 0 .7.2.8.5s0 1.4 0 1.6c-.1.5-1 .6-1.2 0s-.1-1.5 0-1.8.3-.4.5-.4z"/><path d="m26.1 4s.2.2.2.4v1.6c-.1.6-1.1.7-1.3 0s0-1.3 0-1.6c.1-.5.8-.6 1.1-.3z"/></g></svg>