<svg viewBox="0 0 50 24" xmlns="http://www.w3.org/2000/svg"><g fill="#3354f4"><path d="m26.2 13.3c-.3 0-.6-.3-.6-.6s.3-.6.6-.6h6.4c.3 0 .6.3.6.6s-.3.6-.6.6z"/><path d="m26.2 10.4c-.3 0-.6-.3-.6-.6s.3-.6.6-.6h6.4c.3 0 .6.3.6.6s-.3.6-.6.6z"/><path d="m26.3 16.2c-.3 0-.6-.3-.6-.6s.3-.6.6-.6h6.3c.3 0 .6.3.6.6s-.3.6-.6.6z"/><path d="m17.9 19c-.3 0-.6-.3-.6-.6s.3-.6.6-.6h14.7c.3 0 .6.3.6.6s-.3.6-.6.6z"/><path d="m15.3 23.5c-1.6 0-2.8-1.3-2.8-2.8v-17.4c0-1.6 1.3-2.8 2.8-2.8h19.5c1.6 0 2.8 1.3 2.8 2.8v17.4c0 1.6-1.3 2.8-2.8 2.8zm-1.4-2.8c0 .8.6 1.4 1.4 1.4h19.5c.8 0 1.4-.6 1.4-1.4v-15h-22.3zm1.4-18.8c-.8 0-1.4.6-1.4 1.4v.8h22.2v-.8c0-.8-.6-1.4-1.4-1.4z"/><path d="m17.2 16.1v-.4c.2-.1.5-.2.8-.3v-5.5c-.3 0-.6-.2-.8-.3v-.4h1.1 1.9c2.3 0 3.6 1.2 3.6 3.4s-1.2 3.6-3.8 3.6-1.2 0-1.7 0h-1.1zm2.2-6.3v5.7h.7c1.5 0 2.1-1.3 2.1-3s-.6-2.8-2.1-2.8-.5 0-.7 0z"/></g></svg>