<svg viewBox="0 0 50 24" xmlns="http://www.w3.org/2000/svg"><g fill="#3354f4"><path d="m23.3 23.5s-.2 0-.3 0l-9.8-3.9c-.3-.1-.5-.4-.5-.7v-13.1c0-.3.2-.5.4-.7l9.9-4.5h.3s.2 0 .3 0l9.8 4.6c.2.1.4.3.4.6v4.7s0 0 0 0c.1 0 .2.1.3.2 1.8 1 3 3 3 5.1 0 3.2-2.6 5.8-5.8 5.8s-1.3-.1-1.9-.3-.3 0-.3 0l-1.4.6-4.2 1.7s-.2 0-.3 0zm-9.1-5.1 8.3 3.3v-11.5l-8.3-3.3zm9.8-8.2v11.5l3.3-1.3.5-.2h-.1c-.1-.2-.3-.3-.4-.5-.4-.4-.7-.8-1-1.3-.4-.9-.7-1.8-.7-2.7 0-3.2 2.6-5.8 5.8-5.8h.2.6.1s0-3.1 0-3.1l-8.3 3.3zm7.4.9c-2.5 0-4.5 2-4.5 4.5s.2 1.6.6 2.3c.3.5.7 1 1.2 1.3.8.6 1.7.9 2.7.9 2.5 0 4.5-2 4.5-4.5s-.6-2.6-1.6-3.5c-.1-.1-.2-.2-.4-.3s-.4-.3-.6-.4-.5-.2-.7-.3c-.1 0-.2 0-.4 0s-.4 0-.6 0zm-16.1-5.3 7.9 3.2 3.2-1.2-8-3.4zm4.9-2.3 8.1 3.4 3-1.2-8-3.7z"/><path d="m32.9 18.4c-.2 0-.3 0-.5-.2-.3-.3-.3-.7 0-1l1.3-1.6-1.5-1.3c-.3-.3-.3-.7 0-1s.7-.3 1 0l2 1.8c.3.3.3.7 0 1l-1.8 2.1c-.1.2-.3.3-.6.3z"/><path d="m30.3 18.5c-.2 0-.4 0-.6-.3l-1.8-2.1c-.2-.3-.2-.7 0-1l2-1.8c.3-.3.7-.2 1 0 .3.3.2.7 0 1l-1.5 1.3 1.3 1.6c.3.3.2.8 0 1-.1.1-.3.2-.5.2z"/></g></svg>