<svg viewBox="0 0 50 24" xmlns="http://www.w3.org/2000/svg"><g fill="#3354f4"><path d="m26.2 22.4c0-.4.3-.7.7-.7h8.6c.4 0 .7.3.7.7s-.3.7-.7.7h-8.6c-.4 0-.7-.3-.7-.7z"/><path d="m21.9 10.8h-10.3c-1.1 0-1.9-.9-1.9-1.9v-6.5c0-1.1.9-1.9 1.9-1.9h10.3c1.1 0 1.9.9 1.9 1.9v6.4c0 1.1-.9 1.9-1.9 1.9zm-10.3-8.7c-.2 0-.3.2-.3.3v6.4c0 .2.2.3.3.3h10.3c.2 0 .3-.2.3-.3v-6.4c0-.2-.2-.3-.3-.3z"/><path d="m21.9 23.5h-10.3c-1.1 0-1.9-.9-1.9-1.9v-6.4c0-1.1.9-1.9 1.9-1.9h10.3c1.1 0 1.9.9 1.9 1.9v6.4c0 1.1-.9 1.9-1.9 1.9zm-10.3-8.7c-.2 0-.3.2-.3.3v6.4c0 .2.2.3.3.3h10.3c.2 0 .3-.2.3-.3v-6.4c0-.2-.2-.3-.3-.3z"/><path d="m26.2 1.3c0-.4.3-.7.7-.7h12.9c.4 0 .7.3.7.7s-.3.7-.7.7h-12.9c-.4 0-.7-.3-.7-.7z"/><path d="m26.2 5.4c0-.4.3-.7.7-.7h8.6c.4 0 .7.3.7.7s-.3.7-.7.7h-8.6c-.4 0-.7-.3-.7-.7z"/><path d="m26.2 9.3c0-.4.3-.7.7-.7h8.6c.4 0 .7.3.7.7s-.3.7-.7.7h-8.6c-.4 0-.7-.3-.7-.7z"/><path d="m36.8 5.4c0-.4.3-.7.7-.7h2.2c.4 0 .7.3.7.7s-.3.7-.7.7h-2.2c-.4 0-.7-.3-.7-.7z"/><path d="m26.2 14.3c0-.4.3-.7.7-.7h12.9c.4 0 .7.3.7.7s-.3.7-.7.7h-12.9c-.4 0-.7-.3-.7-.7z"/><path d="m26.2 18.4c0-.4.3-.7.7-.7h8.6c.4 0 .7.3.7.7s-.3.7-.7.7h-8.6c-.4 0-.7-.3-.7-.7z"/><path d="m36.8 18.4c0-.4.3-.7.7-.7h2.2c.4 0 .7.3.7.7s-.3.7-.7.7h-2.2c-.4 0-.7-.3-.7-.7z"/></g></svg>