<svg viewBox="0 0 50 24" xmlns="http://www.w3.org/2000/svg"><g fill="#3354f4"><path d="m35.7 19.1h-1.5v-1.4h1.5c.2 0 .4-.2.4-.4v-15c0-.2-.2-.4-.4-.4h-21.4c-.2 0-.4.2-.4.4v15.1c0 .2.1.3.2.3h.2 11.1v1.4h-11.1c-.3 0-.7 0-.9-.3-.5-.3-.8-.9-.8-1.5v-15c0-1 .8-1.8 1.8-1.8h21.4c1 0 1.8.8 1.8 1.8v15.1c0 1-.8 1.8-1.8 1.8z"/><path d="m27.6 17.7h4.3v1.4h-4.3z"/><path d="m14.2 18.8-1-1.1 6.5-5.4 2.6 1.6 7.9-7.5 7.2 6.1-.8 1.1-6.3-5.4-7.8 7.5-2.6-1.7z"/><path d="m19.8 8.5c-1.3 0-2.3-1-2.3-2.3s1-2.3 2.3-2.3 2.3 1 2.3 2.3-1 2.3-2.3 2.3zm0-3.6c-.7 0-1.4.6-1.4 1.4s.6 1.4 1.4 1.4 1.4-.6 1.4-1.4-.6-1.4-1.4-1.4z"/><path d="m29.8 23.5c-2.8 0-5.1-2.3-5.1-5.1s2.3-5.1 5.1-5.1 5.1 2.3 5.1 5.1-2.3 5.1-5.1 5.1zm0-8.7c-2 0-3.7 1.6-3.7 3.7s1.6 3.7 3.7 3.7 3.7-1.6 3.7-3.7-1.6-3.7-3.7-3.7z"/><path d="m29.8 21.2c-.4 0-.7-.3-.7-.7v-4.1c0-.4.3-.7.7-.7s.7.3.7.7v4.1c0 .4-.3.7-.7.7z"/><path d="m31.9 19.1h-4.3c-.4 0-.7-.3-.7-.7s.3-.7.7-.7h4.3c.4 0 .7.3.7.7s-.3.7-.7.7z"/></g></svg>