<svg viewBox="0 0 50 24" xmlns="http://www.w3.org/2000/svg"><g fill="#3354f4"><path d="m34.3 6.7h-18.6c-1.7 0-3.1-1.4-3.1-3.1s1.4-3.1 3.1-3.1h18.6c1.7 0 3.1 1.4 3.1 3.1s-1.4 3.1-3.1 3.1zm-18.6-4.8c-.9 0-1.7.7-1.7 1.7s.7 1.7 1.7 1.7h18.6c.9 0 1.7-.7 1.7-1.7s-.7-1.7-1.7-1.7z"/><path d="m35.4 23.5h-20.4c-1 0-1.7-.8-1.7-1.7v-12.1c0-1 .8-1.7 1.7-1.7h20.4c1 0 1.7.8 1.7 1.7v12.1c0 1-.8 1.7-1.7 1.7zm-20.4-14.2c-.2 0-.3.1-.3.3v12.1c0 .2.1.3.3.3h20.4c.2 0 .3-.1.3-.3v-12.1c0-.2-.1-.3-.3-.3z"/><path d="m14.9 23.2-.9-1.1 6.2-5.3 2.5 1.6 7.5-7.2 7 5.9-1 1.1-6-5.1-7.4 7.1-2.5-1.6z"/><path d="m20.3 15.3c-1.2 0-2.2-1-2.2-2.2s1-2.2 2.2-2.2 2.2 1 2.2 2.2-1 2.2-2.2 2.2zm0-3.5c-.7 0-1.3.6-1.3 1.3s.6 1.3 1.3 1.3 1.3-.6 1.3-1.3-.6-1.3-1.3-1.3z"/></g></svg>