<svg viewBox="0 0 50 24" xmlns="http://www.w3.org/2000/svg"><g fill="#3354f4"><path d="m15.4 23.5c-1.6 0-2.8-1.3-2.8-2.8v-17.4c0-1.6 1.3-2.8 2.8-2.8h19.5c1.6 0 2.8 1.3 2.8 2.8v17.4c0 1.6-1.3 2.8-2.8 2.8zm-1.4-2.8c0 .8.6 1.4 1.4 1.4h19.5c.8 0 1.4-.6 1.4-1.4v-15h-22.3zm1.4-18.8c-.8 0-1.4.6-1.4 1.4v.8h22.2v-.8c0-.8-.6-1.4-1.4-1.4z"/><path d="m25.4 10.6 2.4 6.7s0 0 0-.1c.4-1.1.8-2.2 1.2-3.3s0-1.3-.2-1.9-1-1.6-.6-2.6 2-1.1 2.7-.1c.6 1 0 2-.3 2.9-.8 2.2-1.6 4.5-2.4 6.7-.2.4-.7.4-.9 0l-1.8-5.1s-.1.2-.1.3c-.6 1.5-1 3-1.6 4.5 0 .2-.2.6-.5.7s-.5-.2-.6-.4-.2-.6-.3-.9c-.9-2.4-1.7-4.8-2.5-7.2-.2 0-.3 0-.5-.1-.3-.3-.1-.7.2-.8h3.2c.4 0 .5.5.2.8s-.2.1-.2.1h-.5v.3c.3 1 .8 2 1.1 3s0 .2 0 .4c-.1.4-.7.5-.9 0l-1.3-3.7h-.5l2.4 6.7 1.8-5-.6-1.7c-.2 0-.4 0-.5-.2-.2-.3 0-.7.3-.8h3.2c.4 0 .5.6.2.8s-.1 0-.1 0h-.5l1.2 3.5c0 .5-.7.7-.9.2l-1.3-3.7zm4.3 1.2c.1-.6.7-1.4.3-2s-1.1-.3-1.1.3.5 1.3.7 1.7 0 0 0 0z"/><path d="m40.4 17.2c-.2 0-.4 0-.5-.2-.3-.3-.3-.7 0-1l3.1-3.1-3.1-3.1c-.3-.3-.3-.7 0-1 .1-.1.3-.2.5-.2s.4 0 .5.2l3.6 3.6c.1.1.2.3.2.5s0 .4-.2.5l-3.6 3.6c-.1.1-.3.2-.5.2z"/><path d="m9.6 17.2c-.2 0-.4 0-.5-.2l-3.6-3.6c-.1-.1-.2-.3-.2-.5s0-.4.2-.5l3.6-3.6c.1-.1.3-.2.5-.2s.4 0 .5.2c.3.3.3.7 0 1l-3.1 3.1 3.1 3.1c.3.3.3.7 0 1-.1.1-.3.2-.5.2z"/></g></svg>