<svg viewBox="0 0 50 24" xmlns="http://www.w3.org/2000/svg"><g fill="#3354f4"><path d="m30.6 23.5h-11.6c-1.9 0-3.5-1.5-3.5-3.5v-16c0-1.9 1.5-3.5 3.5-3.5h11.6c1.9 0 3.5 1.5 3.5 3.5v16.1c0 1.9-1.5 3.5-3.5 3.5zm-11.6-21.4c-1 0-1.9.8-1.9 1.9v16.1c0 1 .8 1.9 1.9 1.9h11.6c1 0 1.9-.8 1.9-1.9v-16.1c0-1-.8-1.9-1.9-1.9z"/><path d="m16.3 20.8h-6.6c-1.9 0-3.5-1.5-3.5-3.5v-10.7c0-1.9 1.5-3.5 3.5-3.5h6.6c.4 0 .8.4.8.8s-.4.8-.8.8h-6.6c-1 0-1.9.8-1.9 1.9v10.8c0 1 .8 1.9 1.9 1.9h6.6c.4 0 .8.4.8.8s-.4.8-.8.8z"/><path d="m40.3 20.8h-7c-.4 0-.8-.4-.8-.8s.4-.8.8-.8h7c1 0 1.9-.8 1.9-1.9v-10.7c0-1-.8-1.9-1.9-1.9h-7c-.4 0-.8-.4-.8-.8s.4-.8.8-.8h7c1.9 0 3.5 1.5 3.5 3.5v10.8c0 1.9-1.5 3.5-3.5 3.5z"/><path d="m25.4 10.1v-2.9c.6.1 1.2.4 1.7.7 0 0 .2.1.3.1.4 0 .7-.3.7-.7 0-.2 0-.3-.2-.4-.7-.6-1.6-1-2.5-1v-1c0-.3-.2-.5-.5-.5-.3 0-.5.2-.5.5v.9c-1.8.1-3.1 1.3-3.1 2.8s1.6 2.4 3.1 2.8v3.3c-.8-.1-1.5-.4-2.2-1-.1 0-.3-.1-.4-.1-.4 0-.7.3-.7.7 0 .2 0 .3.2.4.8.8 1.9 1.2 3.1 1.2v.9s0 0 0 0c0 .3.2.5.5.5s.5-.2.5-.5v-.9c2.2-.1 3.1-1.5 3.1-2.9 0-1.9-1.6-2.5-3.1-2.9zm-1-.2c-.9-.3-1.6-.5-1.6-1.3s.6-1.3 1.6-1.4zm1 4.8v-3c.9.3 1.6.6 1.6 1.5 0 .6-.4 1.4-1.6 1.5z"/><path d="m38.5 11.4v-2c.4 0 .8.2 1.2.5h.2c.3 0 .5-.2.5-.5 0-.1 0-.2-.1-.3-.5-.4-1.1-.7-1.8-.7v-.7c0-.2-.2-.3-.3-.3-.2 0-.4.2-.4.3v.6c-1.3 0-2.1.9-2.1 1.9s1.1 1.6 2.1 1.9v2.3c-.6 0-1.1-.3-1.5-.7 0 0-.2 0-.3-.1-.3 0-.5.2-.5.5 0 .1 0 .2.1.3.6.5 1.3.8 2.1.9v.6s0 0 0 0c0 .2.2.3.4.3s.3-.2.3-.3v-.6c1.5-.1 2.2-1 2.2-2 0-1.3-1.1-1.7-2.2-2zm-.7-.1c-.6-.2-1.1-.4-1.1-.9s.4-.9 1.1-1zm.7 3.3v-2.1c.6.2 1.1.4 1.1 1 0 .4-.3.9-1.1 1z"/><path d="m12.1 11.4v-2c.4 0 .8.2 1.2.5h.2c.3 0 .5-.2.5-.5 0-.1 0-.2-.1-.3-.5-.4-1.1-.7-1.8-.7v-.7c0-.2-.2-.3-.3-.3-.2 0-.4.2-.4.3v.6c-1.3 0-2.1.9-2.1 1.9s1.1 1.6 2.1 1.9v2.3c-.6 0-1.1-.3-1.5-.7 0 0-.2 0-.3-.1-.3 0-.5.2-.5.5 0 .1 0 .2.1.3.6.5 1.3.8 2.1.9v.6s0 0 0 0c0 .2.2.3.4.3s.3-.2.3-.3v-.6c1.5-.1 2.2-1 2.2-2 0-1.3-1.1-1.7-2.2-2zm-.7-.1c-.6-.2-1.1-.4-1.1-.9s.4-.9 1.1-1zm.7 3.3v-2.1c.6.2 1.1.4 1.1 1 0 .4-.3.9-1.1 1z"/><path d="m20.6 19.7c-.2 0-.4-.2-.4-.5s.2-.5.4-.5h9.5c.2 0 .4.2.4.5s-.2.5-.4.5z"/></g></svg>