<svg viewBox="0 0 50 24" xmlns="http://www.w3.org/2000/svg"><g fill="#3354f4"><path d="m23.3 16.5c-1.2 0-2.3-.4-3.4-1.2-.2-.1-.2-.4-.2-.6l1.3-3.2c-.5 0-.8-.5-.8-1v-.8c0-.6.5-1 1-1h1c.3 0 .6.2.7.5 0 .2.2.3.4.3s.3-.1.4-.3c0-.3.4-.5.7-.5h1c.6 0 1 .5 1 1v.8c0 .5-.3.9-.8 1l1.3 3.2c0 .2 0 .4-.2.6-1.1.8-2.3 1.2-3.5 1.2zm-2.4-1.8c.8.5 1.6.8 2.5.8s1.7-.3 2.6-.8l-1.4-3.5c0-.2 0-.3 0-.5 0-.1.2-.2.4-.2h.5v-.8c-.2 0-.5 0-.7 0s-.1 0-.2 0c-.2.5-.7.8-1.2.8s-1-.3-1.2-.8h-.8s0 0 0 0v.8h.6c.2 0 .3.1.4.2 0 .1.1.3 0 .5l-1.4 3.5z" fill-rule="evenodd"/><path d="m28.8 22.4h-13.8c-1 0-1.8-.8-1.8-1.7v-18.5c0-1 .8-1.7 1.8-1.7h17.8c1 0 1.8.8 1.8 1.7v12.7h-1.5v-12.7c0-.1-.1-.3-.3-.3h-17.8c-.1 0-.3.1-.3.3v18.4c0 .1.1.3.3.3h13.8z"/><path d="m14.5 4.1h18.9v1.5h-18.9z"/><path d="m31.7 23.5c-2.8 0-5-2.3-5-5s2.3-5 5-5 5 2.3 5 5-2.3 5-5 5zm0-8.6c-2 0-3.6 1.6-3.6 3.6s1.6 3.6 3.6 3.6 3.6-1.6 3.6-3.6-1.6-3.6-3.6-3.6z"/><path d="m31.7 21.2c-.4 0-.7-.3-.7-.7v-4c0-.4.3-.7.7-.7s.7.3.7.7v4c0 .4-.3.7-.7.7z"/><path d="m33.8 19.2h-4.2c-.4 0-.7-.3-.7-.7s.3-.7.7-.7h4.2c.4 0 .7.3.7.7s-.3.7-.7.7z"/></g></svg>