<svg width="22" height="22" viewBox="0 0 22 22" fill="none" xmlns="http://www.w3.org/2000/svg">
<path d="M2.28074 22C1.67523 22 1.1 21.7577 0.666056 21.3336C0.23211 20.8995 0 20.3341 0 19.7182V16.5479C0 16.3662 0.0706423 16.1946 0.201835 16.0633C0.333028 15.9321 0.504588 15.8614 0.686239 15.8614C0.867891 15.8614 1.04954 15.9321 1.17064 16.0633C1.29174 16.1946 1.37248 16.3662 1.37248 16.5479V19.7182C1.37248 19.9605 1.4633 20.1827 1.63486 20.3543C1.79633 20.5259 2.02844 20.6168 2.27065 20.6168H5.43946C5.62111 20.6168 5.80276 20.6875 5.92386 20.8187C6.05505 20.95 6.1257 21.1216 6.1257 21.3034C6.1257 21.4851 6.05505 21.6668 5.92386 21.7981C5.79267 21.9293 5.62111 22 5.43946 22H2.27065H2.28074Z" fill="#818489"/>
<path d="M16.5505 22C16.3688 22 16.1972 21.9293 16.066 21.7981C15.9349 21.6668 15.8642 21.4952 15.8642 21.3034C15.8642 21.1115 15.9349 20.9399 16.066 20.8187C16.1972 20.6875 16.3688 20.6168 16.5605 20.6168H19.7294C19.9615 20.6168 20.1936 20.5259 20.3651 20.3543C20.5367 20.1827 20.6275 19.9605 20.6275 19.7182V16.5479C20.6275 16.3662 20.6982 16.1845 20.8294 16.0633C20.9605 15.9422 21.1321 15.8614 21.3138 15.8614C21.4954 15.8614 21.6771 15.9321 21.7982 16.0633C21.9294 16.1946 22 16.3662 22 16.5479V19.7182C22 20.324 21.7679 20.8995 21.3339 21.3336C20.9 21.7678 20.3349 22 19.7193 22H16.5505Z" fill="#818489"/>
<path d="M0.696341 6.13861C0.514689 6.13861 0.333038 6.06793 0.211937 5.93668C0.0807439 5.80543 0.0101016 5.63379 0.0101016 5.45205V2.28178C0.0101016 1.6861 0.252304 1.09041 0.676158 0.666362C1.10001 0.242313 1.68533 0 2.29084 0H5.45965C5.6413 0 5.81286 0.0706747 5.94405 0.201928C6.07525 0.333181 6.14589 0.50482 6.14589 0.686555C6.14589 0.86829 6.07525 1.05002 5.94405 1.17118C5.81286 1.29234 5.6413 1.37311 5.45965 1.37311H2.29084C2.05873 1.37311 1.82662 1.46398 1.65506 1.63562C1.4835 1.79716 1.39267 2.02937 1.39267 2.27169V5.44196C1.39267 5.62369 1.32203 5.80543 1.19084 5.92658C1.05964 6.04774 0.888084 6.12851 0.706433 6.12851L0.696341 6.13861Z" fill="#818489"/>
<path d="M21.3037 6.13862C21.122 6.13862 20.9404 6.06794 20.8193 5.93669C20.6982 5.80544 20.6174 5.6338 20.6174 5.45206V2.28179C20.6174 2.04958 20.5266 1.81736 20.355 1.64572C20.1936 1.47408 19.9615 1.38322 19.7193 1.38322H16.5505C16.3688 1.38322 16.1871 1.31254 16.066 1.18129C15.9449 1.05003 15.8642 0.878396 15.8642 0.696661C15.8642 0.514926 15.9349 0.333191 16.066 0.212034C16.1972 0.080781 16.3688 0.0101063 16.5505 0.0101063H19.7193C20.3147 0.0101063 20.9101 0.25242 21.3339 0.676468C21.7578 1.10052 22 1.68611 22 2.29189V5.46216C22 5.64389 21.9294 5.81553 21.7982 5.94679C21.667 6.07804 21.4954 6.14871 21.3138 6.14871L21.3037 6.13862Z" fill="#818489"/>
<path d="M4.65231 18.8297C4.25874 18.8297 3.88534 18.6783 3.60277 18.3956C3.33029 18.123 3.16883 17.7393 3.16883 17.3456V14.9628C3.16883 14.5691 3.3202 14.1955 3.60277 13.9128C3.88534 13.6301 4.25874 13.4787 4.65231 13.4787H7.03397C7.42755 13.4787 7.80094 13.6301 8.08351 13.9128C8.36608 14.1955 8.51746 14.5691 8.51746 14.9628V17.3456C8.51746 17.7393 8.35599 18.123 8.08351 18.3956C7.80094 18.6783 7.42755 18.8297 7.03397 18.8297H4.65231ZM4.5514 17.4465H7.13489V14.8619H4.5514V17.4465Z" fill="#818489"/>
<path d="M14.9661 18.8297C14.5725 18.8297 14.1991 18.6783 13.9165 18.3956C13.644 18.123 13.4826 17.7393 13.4826 17.3456V14.9628C13.4826 14.5691 13.6339 14.1955 13.9165 13.9128C14.1991 13.6301 14.5725 13.4787 14.9661 13.4787H17.3477C17.7413 13.4787 18.1147 13.6301 18.3973 13.9128C18.6798 14.1955 18.8312 14.5691 18.8312 14.9628V17.3456C18.8312 17.7393 18.6697 18.123 18.3973 18.3956C18.1147 18.6783 17.7413 18.8297 17.3477 18.8297H14.9661ZM14.8651 17.4465H17.4486V14.8619H14.8651V17.4465Z" fill="#818489"/>
<path d="M11 18.8297C10.8184 18.8297 10.6468 18.7591 10.5156 18.6278C10.3844 18.4966 10.3138 18.3249 10.3138 18.1331V11.6815H3.86517C3.68352 11.6815 3.50186 11.6108 3.38076 11.4796C3.25966 11.3483 3.17893 11.1767 3.17893 10.9949C3.17893 10.8132 3.24957 10.6315 3.38076 10.5103C3.51196 10.3891 3.68352 10.3084 3.86517 10.3084H10.2129C10.6065 10.3084 10.9899 10.4699 11.2624 10.7425C11.5349 11.0151 11.6964 11.3988 11.6964 11.7925V18.1432C11.6964 18.3249 11.6257 18.5066 11.4945 18.6379C11.3633 18.7692 11.1918 18.8398 11.0101 18.8398L11 18.8297Z" fill="#818489"/>
<path d="M3.86517 8.51127C3.68352 8.51127 3.51196 8.4406 3.38076 8.30935C3.24957 8.17809 3.17893 8.00646 3.17893 7.82472V4.65445C3.17893 4.26069 3.3303 3.88713 3.61287 3.60443C3.89544 3.32173 4.26884 3.17028 4.66242 3.17028H7.83123C8.01288 3.17028 8.19453 3.24096 8.31563 3.37221C8.43673 3.50346 8.51747 3.6751 8.51747 3.85684C8.51747 4.03857 8.44683 4.22031 8.31563 4.34146C8.18444 4.47272 8.01288 4.54339 7.83123 4.54339H4.5615V7.81462C4.5615 7.99636 4.49086 8.168 4.35966 8.29925C4.22847 8.4305 4.05691 8.50118 3.87526 8.50118L3.86517 8.51127Z" fill="#818489"/>
<path d="M14.9661 8.51126C14.5725 8.51126 14.1991 8.35982 13.9165 8.07712C13.6339 7.79442 13.4826 7.42085 13.4826 7.02709V4.64435C13.4826 4.25059 13.6339 3.87702 13.9165 3.59432C14.1991 3.31162 14.5725 3.16018 14.9661 3.16018H17.3477C17.7413 3.16018 18.1147 3.31162 18.3973 3.59432C18.6798 3.87702 18.8312 4.25059 18.8312 4.64435V7.02709C18.8312 7.42085 18.6798 7.79442 18.3973 8.07712C18.1147 8.35982 17.7413 8.51126 17.3477 8.51126H14.9661ZM14.8651 7.12806H17.4486V4.54338H14.8651V7.12806Z" fill="#818489"/>
<path d="M14.1688 11.6916C13.9872 11.6916 13.8055 11.6209 13.6844 11.4897C13.5532 11.3584 13.4826 11.1868 13.4826 11.005C13.4826 10.8233 13.5532 10.6517 13.6844 10.5204C13.8156 10.3892 13.9872 10.3185 14.1688 10.3185H14.9661C15.1477 10.3185 15.3294 10.3892 15.4505 10.5204C15.5817 10.6517 15.6523 10.8233 15.6523 11.005C15.6523 11.1868 15.5817 11.3584 15.4505 11.4897C15.3193 11.6209 15.1477 11.6916 14.9661 11.6916H14.1688Z" fill="#818489"/>
<path d="M17.3477 11.6916C17.1661 11.6916 16.9844 11.6209 16.8633 11.4897C16.7321 11.3584 16.6615 11.1868 16.6615 11.005C16.6615 10.8233 16.7321 10.6517 16.8633 10.5204C16.9945 10.3892 17.1661 10.3185 17.3477 10.3185H18.145C18.3266 10.3185 18.5083 10.3892 18.6294 10.5204C18.7505 10.6517 18.8312 10.8233 18.8312 11.005C18.8312 11.1868 18.7606 11.3685 18.6294 11.4897C18.4982 11.6108 18.3266 11.6916 18.145 11.6916H17.3477Z" fill="#818489"/>
<path d="M7.03393 8.5112C6.85228 8.5112 6.67063 8.44053 6.54953 8.30928C6.41833 8.17802 6.34769 8.00639 6.34769 7.82465C6.34769 7.64292 6.41833 7.46118 6.54953 7.34002C6.68072 7.21887 6.85228 7.1381 7.03393 7.1381H11C11.1816 7.1381 11.3532 7.20877 11.4844 7.34002C11.6156 7.47128 11.6862 7.64292 11.6862 7.82465C11.6862 8.00639 11.6156 8.18812 11.4844 8.30928C11.3532 8.43043 11.1816 8.5112 11 8.5112H7.03393Z" fill="#818489"/>
<path d="M11 5.34101C10.8183 5.34101 10.6468 5.27033 10.5156 5.13908C10.3844 5.00783 10.3137 4.83619 10.3137 4.65445V3.85684C10.3137 3.6751 10.3844 3.49337 10.5156 3.37221C10.6468 3.25105 10.8183 3.17028 11 3.17028C11.1816 3.17028 11.3633 3.24096 11.4844 3.37221C11.6055 3.50346 11.6862 3.6751 11.6862 3.85684V4.65445C11.6862 4.83619 11.6156 5.01792 11.4844 5.13908C11.3532 5.27033 11.1816 5.34101 11 5.34101Z" fill="#818489"/>
</svg>
