<svg viewBox="0 0 50 24" xmlns="http://www.w3.org/2000/svg"><g fill="#3354f4"><path d="m22 8.8c0-.3.3-.6.6-.6h9.7c.3 0 .6.3.6.6s-.3.6-.6.6h-9.7c-.3 0-.6-.3-.6-.6z"/><path d="m18.8 10.4c-.4 0-.8-.2-1.1-.5-.5-.5-.6-1.1-.3-1.7s.8-1 1.5-1c.9 0 1.6.7 1.6 1.6 0 .6-.4 1.2-1 1.5-.2 0-.4.1-.6.1zm0-2.3c-.2 0-.4 0-.5.2-.2.2-.3.5-.2.8s.4.4.7.4.7-.3.7-.7-.2-.6-.4-.7c0 0-.2 0-.3 0z"/><path d="m29.3 13h-6.8c-.3 0-.6.3-.6.6s.3.6.6.6h6.8c.3 0 .6-.3.6-.6s-.3-.6-.6-.6z"/><path d="m18.8 15.2c-.4 0-.8-.2-1.1-.5-.5-.5-.6-1.1-.3-1.7.2-.6.8-1 1.5-1 .9 0 1.6.7 1.6 1.6 0 .6-.4 1.2-1 1.5-.2 0-.4.1-.6.1zm0-2.3c-.2 0-.4 0-.5.2-.2.2-.3.5-.2.8s.4.4.7.4.7-.3.7-.7-.2-.6-.4-.7c0 0-.2 0-.3 0z"/><path d="m31.3 17.7h-8.7c-.3 0-.6.3-.6.6s.3.6.6.6h8.7c.3 0 .6-.3.6-.6s-.3-.6-.6-.6z"/><path d="m18.8 19.9c-.4 0-.8-.2-1.1-.5-.5-.5-.6-1.1-.3-1.7s.8-1 1.5-1c.9 0 1.6.7 1.6 1.6 0 .6-.4 1.2-1 1.5-.2 0-.4.1-.6.1zm0-2.3c-.2 0-.4 0-.5.2-.2.2-.3.5-.2.8s.4.4.7.4.7-.3.7-.7-.2-.6-.4-.7c0 0-.2 0-.3 0z"/><path d="m15.3 23.5c-1.6 0-2.8-1.3-2.8-2.8v-17.4c0-1.6 1.3-2.8 2.8-2.8h19.5c1.6 0 2.8 1.3 2.8 2.8v17.4c0 1.6-1.3 2.8-2.8 2.8zm-1.4-2.8c0 .8.6 1.4 1.4 1.4h19.5c.8 0 1.4-.6 1.4-1.4v-15h-22.3zm1.4-18.8c-.8 0-1.4.6-1.4 1.4v.8h22.2v-.8c0-.8-.6-1.4-1.4-1.4z"/></g></svg>