<svg viewBox="0 0 50 24" xmlns="http://www.w3.org/2000/svg"><g fill="#3354f4"><path d="m31.8 15.7c-.1.5-.5.9-1 1h-11.6c-.5-.1-1-.5-1-1.1.1-1.4-.5-3.2 1.1-4 .6-.3 1.7-.3 2.3-.2s.3 0 .4 0c.3-.6.9-1 1.6-1.1h2.8c.6 0 1.2.5 1.5 1.1h.4 1.5c.9 0 1.8.8 1.9 1.8s0 1.7 0 2.6zm-4.4.2v-3.7c0-.5-.6-1-1.1-1-.8 0-1.7 0-2.5 0s-1.1.5-1.1 1v3.7zm-5.6-3.7c-.1 0-.2 0-.3 0-.4 0-.9 0-1.3 0-1.8.1-1.1 2.1-1.2 3.3 0 .1.2.4.3.4h2.5zm6.4 3.7h2.5c.1 0 .3-.3.3-.4-.1-1.2.5-3.2-1.2-3.3-.4 0-.9 0-1.3 0s-.2 0-.3 0z"/><path d="m24.7 5.4c2.2-.2 3.5 2.2 2.1 3.9-1.1 1.3-3.1 1.1-3.9-.4s.2-3.3 1.8-3.5zm1.4 3.5c.7-.7.6-2-.3-2.5s-2.6.4-2.3 1.7 1.8 1.7 2.6.8z"/><path d="m20.8 7.6c1.4 0 2.3 1.5 1.6 2.7s-2.5 1.1-3.1-.2.3-2.5 1.6-2.5zm-.1.8c-1.1.2-1 1.9.2 1.9 1.4 0 1.2-2.2-.2-1.9z"/><path d="m29.1 7.6c1.4 0 2.3 1.4 1.6 2.7s-2.6 1.2-3.2-.2.4-2.4 1.6-2.5zm-.2.8c-1.1.2-1 1.9.2 1.9s1.2-2.2-.2-1.9z"/><path d="m25 23.5c-3.1 0-6-1.2-8.1-3.4-3.3-3.3-4.3-8.2-2.5-12.5s5.9-7.1 10.6-7.1 11.5 5.2 11.5 11.5-2.8 8.8-7.1 10.6c-1.4.6-2.9.9-4.4.9zm0-21.5c-2.7 0-5.2 1-7.1 2.9-2.9 2.9-3.7 7.2-2.2 10.9 1.6 3.8 5.2 6.2 9.3 6.2s10-4.5 10-10-2.4-7.7-6.2-9.3c-1.2-.5-2.5-.8-3.8-.8z"/></g></svg>