<?xml version="1.0" encoding="UTF-8"?>
<svg id="Layer_1" xmlns="http://www.w3.org/2000/svg" version="1.1" viewBox="0 0 50 24">
  <!-- Generator: Adobe Illustrator 29.1.0, SVG Export Plug-In . SVG Version: 2.1.0 Build 142)  -->
  <defs>
    <style>
      .st0 {
        fill: #3354f4;
      }
    </style>
  </defs>
  <path class="st0" d="M37.6,11.3c-.2-4-3.6-7.4-7.8-7.6h0c-.5,0-1.4,0-1.6.5,0,.3,0,.5.1.6.3.3.8.3,1.2.3.1,0,.2,0,.3,0,1.9.1,3.7,1.1,4.9,2.6,1.2,1.5,1.7,3.5,1.4,5.4-.4,2.3-2.1,4.4-4.2,5.2-.2,0-.4.1-.6.2-.3,0-.5.1-.7.2,0,0-.4.3-.4.5v2.1l-2.3-2.2c-.2-.2-.5-.3-.7-.3-.9,0-1.8,0-2.7,0-1.5,0-3,.1-4.3-.3-1.8-.6-3.3-1.8-4.1-3.6-.8-1.7-.9-3.8-.2-5.6,0,0,0-.2.2-.3.2-.3.3-.5.3-.7,0-.3-.1-.5-.3-.7-.2-.1-.5-.1-.7,0,0,0-.2.2-.6,1-.9,2.1-.9,4.4,0,6.5.9,2.1,2.7,3.7,4.8,4.5,1.6.6,3.3.5,5,.5.8,0,1.7,0,2.5,0l3.4,3.4.3.2h.4c.1-.1.4-.3.5-.6v-3.2c2.9-.9,5.1-3.2,5.8-6.2l.2-1.3v-1.2Z"/>
  <path class="st0" d="M16.6,6.7h0s0,0,0,0c.2.6.6.8,1,.8.2,0,.6,0,1.1,0s1.3,0,1.5-.1c.4-.1.6-.5.7-.9,0-.5,0-1.6,0-2.1,0-.3-.2-.6-.4-.8,0,0-.2-.2-.4-.2h-.7c0-.4.3-.4.4-.5,0,0,.1,0,.2,0,.2,0,.5-.1.6-.5,0-.3,0-1.3,0-1.6,0-.3-.3-.5-.5-.6h0s-.4,0-.4,0l-.9.2c-2.3.8-2.2,3.2-2.2,5.2,0,.4,0,.7,0,1.1ZM18.1,3.2c-.1.5-.2,1.2,0,1.5,0,0,.3.2.5.2h.9v1.3h-1.6c0-.3,0-.5,0-.8,0-1.5,0-3,1.2-3.5-.5.2-.9.7-1.1,1.4Z"/>
  <path class="st0" d="M22.2,7.5c.3,0,.7,0,1.1,0s.9,0,1.1,0c.8,0,1-.5,1-.9,0-.5,0-1.8,0-2.3,0-.3-.2-.5-.4-.7-.3-.2-.3-.2-.4-.2h-.7c0-.3.2-.4.3-.5,0,0,.1,0,.2,0,.2,0,.6-.1.7-.5,0-.3,0-1.3,0-1.6,0-.3-.3-.5-.4-.6h0s-.5,0-.5,0l-.7.2c-1.5.4-2.3,1.6-2.4,3.6,0,.4,0,1.8,0,2.6,0,.5.4.8,1,.9ZM22.7,3.2c0,.2-.1.8-.1,1,0,.4.4.6.7.6h.9v1.3h-1.6c0-.3,0-.5,0-.8,0-1.5,0-3.1,1.3-3.6-.6.2-1,.8-1.2,1.5Z"/>
  <path class="st0" d="M33.8,10.3c0-.3-.4-.6-.8-.6h-14.4c-.5,0-.7.5-.7.8,0,.3.4.7.8.7,1.4,0,3.3,0,5.3,0,1.2,0,2.4,0,3.6,0,2.1,0,4.2,0,5.6,0h0c.3-.2.5-.5.4-.8Z"/>
  <path class="st0" d="M18.5,13.1h0c-.4.1-.6.5-.5.8s.4.6.7.6h14.4c.5,0,.7-.3.7-.7,0-.3-.2-.7-.7-.7h-14.7Z"/>
</svg>