<svg xmlns="http://www.w3.org/2000/svg" width="200" height="100" viewBox="0 0 200 100" fill="none">
    <rect width="200" height="100" rx="10" fill="white"/>
    <rect x="130.5" y="38.5" width="23" height="23" rx="11.5" fill="white"/>
    <rect x="130.5" y="38.5" width="23" height="23" rx="11.5" stroke="#D8D8D8"/>
    <rect x="135" y="43" width="14" height="14" rx="7" fill="#AC09C9"/>
    <rect x="102.5" y="38.5" width="23" height="23" rx="11.5" fill="white"/>
    <rect x="102.5" y="38.5" width="23" height="23" rx="11.5" stroke="#D8D8D8"/>
    <rect x="107" y="43" width="14" height="14" rx="7" fill="#F2C31B"/>
    <rect x="74.5" y="38.5" width="23" height="23" rx="11.5" fill="white"/>
    <rect x="74.5" y="38.5" width="23" height="23" rx="11.5" stroke="#2C2C2C"/>
    <rect x="79" y="43" width="14" height="14" rx="7" fill="#05C9AC"/>
    <rect x="46.5" y="38.5" width="23" height="23" rx="11.5" fill="white"/>
    <rect x="46.5" y="38.5" width="23" height="23" rx="11.5" stroke="#D8D8D8"/>
    <rect x="51" y="43" width="14" height="14" rx="7" fill="#0598C9"/>
</svg>